# xmcd
#
# Track frame offsets:
#	150
#	18213
#	34457
#	49988
#	63681
#	96463
#	115056
#	129690
#	145064
#	166836
#	192386
#	216149
#	233511
#	248822
#	264713
#	277458
#	302929
#	316657
#	330554
#	354486
#
# Disc length: 4796 seconds
#
# Revision: 0
# Processed by: cddbd v1.5.2PL0 Copyright (c) Steve Scherf et al.
# Submitted via: EasyCDDAExtractor 8.2.3.1
#
DISCID=3512ba14
DTITLE=Various Artist - GOOD WHISKEY BLUES  bottle 1   79'54''
DYEAR=2002
DGENRE=Blues
TTITLE0=BEAT DADDYS - Livin' This Love
TTITLE1=BLEU JACKSON - You Left Your Mark on Me
TTITLE2=KENT EARL HOUSMAN - Margarita Drive
TTITLE3=SY KLOPP'S Blues Band - Steppin' Stone
TTITLE4=JERRY MILLER Band - Now I See
TTITLE5=TOMBSTONE BULLETS - Murdered By Love
TTITLE6=BILLY C. FARLOW - A Little Meat on the Side
TTITLE7=HYPNOTICS - Womanzer
TTITLE8=METROPOLITIAN BLUES ALL-STARS - Storm Comin' Thru
TTITLE9=FREDDY and The SCREAMERS - Full Moon on Main Street
TTITLE10=TIM WAGONER and BILL BLUE YOUNDER - Make It Rain
TTITLE11=DEAN HALL - My Milkman Was Freddie King
TTITLE12=BUDDY FLETT - Blues in a Honky Tonk Key
TTITLE13=WILL SMOKEY LOGG - El Madrid
TTITLE14=COLD BLUE STEEL - The Girl That Radiates
TTITLE15=CHUCK VINCENT - Boogie Till We All Fall Down
TTITLE16=BLUE JEANS - Somebody Told Me
TTITLE17=DOUG JAY - Watch Your Step
TTITLE18=B.B. CHUNG KING - When the Blues Catch Up with You
TTITLE19=Various Artist - Bonus Track
EXTD=
EXTT0=
EXTT1=
EXTT2=
EXTT3=
EXTT4=
EXTT5=
EXTT6=
EXTT7=
EXTT8=
EXTT9=
EXTT10=
EXTT11=
EXTT12=
EXTT13=
EXTT14=
EXTT15=
EXTT16=
EXTT17=
EXTT18=
EXTT19=
PLAYORDER=
